<svg width="300" height="100" viewBox="0 0 300 100" fill="none" xmlns="http://www.w3.org/2000/svg">
<path d="M281.25 0H218.75C208.395 0 200 8.39466 200 18.75V81.25C200 91.6053 208.395 100 218.75 100H281.25C291.605 100 300 91.6053 300 81.25V18.75C300 8.39466 291.605 0 281.25 0Z" fill="black"></path>
<path d="M219.937 35.5763C220.364 31.4758 222.398 27.7861 225.536 25.24C228.673 22.694 232.702 21.4631 236.803 21.8898C240.583 22.2832 244.084 24.0644 246.627 26.889L273.11 56.3019C275.869 59.3656 277.246 63.3476 277.034 67.3826C276.823 71.4177 275.037 75.2339 271.974 77.9925C269.149 80.5357 265.482 81.9413 261.681 81.9374L225.781 81.9004C223.201 81.8977 220.767 80.8654 218.981 79.0754C217.194 77.2855 216.167 74.8496 216.17 72.2694V71.9095L219.937 35.5763ZM234.397 36.1595C234.126 36.3788 233.961 36.679 233.924 37.0292L230.729 67.8429L261.695 67.8749C261.976 67.8749 262.248 67.7844 262.471 67.6179L262.564 67.542C262.828 67.3047 262.973 66.9942 262.991 66.6467C263.009 66.2992 262.897 65.9751 262.66 65.7116L236.176 36.2987C235.962 36.0603 235.666 35.91 235.347 35.8768C234.995 35.8401 234.667 35.9403 234.397 36.1595Z" fill="#7A1818"></path>
<path d="M225.415 18.0493L274.219 18.0997C276.799 18.1023 279.233 19.1347 281.019 20.9247C282.806 22.7146 283.833 25.1505 283.83 27.7307V28.0909L283.793 28.4492L278.727 77.259C278.46 79.8253 277.184 82.1405 275.22 83.7339C273.257 85.3274 270.728 86.0997 268.162 85.8326C265.794 85.5862 263.601 84.4704 262.008 82.701L218.255 34.1082C216.528 32.1907 215.664 29.6922 215.797 27.1669C215.929 24.6416 217.049 22.2471 218.967 20.5206C220.736 18.9274 223.034 18.0469 225.415 18.0493ZM235.388 32.1212L265.771 65.865L269.269 32.1564L235.388 32.1212Z" fill="#FF6A33"></path>
<path d="M26.6637 57.4602H0.504418C0.504418 57.5841 0.504418 57.7168 0.522117 57.8407C0.530967 58.0885 0.548665 58.3363 0.566365 58.5752C0.566365 58.6814 0.575214 58.7876 0.584064 58.8938C0.601763 59.177 0.628313 59.4602 0.654862 59.7434C0.654862 59.8053 0.663709 59.8672 0.672558 59.938C0.699107 60.2566 0.734508 60.5664 0.778755 60.885C0.778755 60.9204 0.778754 60.9469 0.787603 60.9734C0.831851 61.3097 0.8761 61.646 0.920348 61.9823C0.920348 61.9823 0.920348 61.9823 0.920348 61.9911C1.22123 64.0796 1.67256 66.1416 2.27433 68.1681C2.27433 68.1681 2.27433 68.1858 2.27433 68.1947C2.37167 68.5133 2.46902 68.8319 2.56637 69.1504C2.56637 69.1681 2.57521 69.1858 2.58406 69.2035C2.59291 69.2212 2.59291 69.2389 2.60176 69.2566C2.69026 69.5398 2.7876 69.823 2.8938 70.115C2.92035 70.1858 2.9469 70.2566 2.97345 70.3274C3.06194 70.5752 3.15044 70.823 3.23893 71.0708C3.28318 71.1858 3.32743 71.292 3.36282 71.4071C3.44247 71.6106 3.52212 71.8142 3.60176 72.0177C3.66371 72.1681 3.72566 72.3274 3.7876 72.4779C3.84955 72.6372 3.92035 72.7965 3.99114 72.9557C4.07079 73.1504 4.15928 73.3451 4.24778 73.5398C4.30088 73.6549 4.35397 73.7699 4.40707 73.885C4.51327 74.115 4.61946 74.354 4.73451 74.5841C4.7699 74.6549 4.8053 74.7345 4.8407 74.8053C4.9646 75.0708 5.09734 75.3363 5.23008 75.6018C5.25663 75.646 5.27433 75.6814 5.29203 75.7257C5.44247 76.0177 5.59291 76.3097 5.75221 76.5929C5.75221 76.6018 5.76991 76.6195 5.76991 76.6283C5.8053 76.6903 5.8407 76.7434 5.8761 76.8053L28.2124 63.3451L28.292 63.292C27.4071 61.4336 26.8584 59.4602 26.6549 57.4513L26.6637 57.4602Z" fill="#93D500"></path>
<path d="M33.0885 69.469L14.6018 87.9557C14.6991 88.0442 14.7876 88.1327 14.885 88.2212C15.0531 88.3805 15.2301 88.531 15.4071 88.6814C15.4956 88.7611 15.5841 88.8407 15.6726 88.9203C15.885 89.0973 16.0885 89.2743 16.3009 89.4513C16.354 89.4956 16.4159 89.5487 16.469 89.5929C16.708 89.7876 16.9469 89.9823 17.1858 90.1681C17.2124 90.1947 17.2478 90.2212 17.2743 90.2389C17.5398 90.4425 17.7965 90.646 18.0619 90.8496C18.0708 90.8496 18.0796 90.8672 18.0885 90.8672C19.1947 91.6991 20.3451 92.4779 21.531 93.1947C21.5752 93.2212 21.6106 93.2478 21.6549 93.2655C21.8761 93.3982 22.1062 93.531 22.3363 93.6637C22.4779 93.7434 22.6106 93.823 22.7522 93.9026C22.885 93.9823 23.0177 94.0531 23.1504 94.1239C23.3894 94.2566 23.6283 94.3894 23.8673 94.5133C23.9027 94.531 23.9292 94.5487 23.9646 94.5664C24.6372 94.9204 25.3186 95.2389 26 95.5575L26.6549 93.9734L35.9204 71.469L35.9557 71.3894C34.9469 70.8496 33.9734 70.2124 33.0619 69.4602L33.0885 69.469Z" fill="#4D5A31"></path>
<path d="M31.177 67.6283C30.9823 67.4071 30.7876 67.177 30.6018 66.9469C30.4336 66.7434 30.2743 66.5398 30.1239 66.3274C29.9469 66.0885 29.7788 65.8496 29.6106 65.6018C29.4425 65.354 29.2832 65.1062 29.1327 64.8584L6.76992 78.3363C7.11505 78.9027 7.46903 79.4602 7.84071 80.0089C7.84956 80.0265 7.86726 80.0442 7.87611 80.0708C7.87611 80.0708 7.87611 80.0885 7.88496 80.0885C7.89381 80.1062 7.91151 80.1239 7.92036 80.1416C7.94691 80.1858 7.98231 80.2301 8.00886 80.2743C8.39824 80.8496 8.79647 81.4159 9.20355 81.9646C9.2124 81.9734 9.22125 81.9912 9.23009 82C9.23009 82.0088 9.24779 82.0265 9.25664 82.0354C9.43363 82.2743 9.61063 82.5133 9.79647 82.7434C9.82301 82.7699 9.84072 82.8053 9.86726 82.8319C10.0531 83.0708 10.2478 83.3097 10.4425 83.5487C10.4867 83.6018 10.5398 83.6637 10.5841 83.7168C10.7611 83.9292 10.9381 84.1416 11.1151 84.3451C11.1947 84.4336 11.2743 84.5221 11.354 84.6106C11.5044 84.7876 11.6637 84.9557 11.8142 85.1327C11.9027 85.2301 11.9912 85.3186 12.0797 85.4159C12.1239 85.4602 12.1593 85.5044 12.1947 85.5487C12.3097 85.6726 12.4248 85.7965 12.5398 85.9203C12.5841 85.9734 12.6372 86.0177 12.6814 86.0619C12.885 86.2743 13.0885 86.4867 13.3009 86.6991L31.7522 68.2478C31.5398 68.0354 31.3451 67.823 31.1504 67.6018L31.177 67.6283Z" fill="#6BA43A"></path>
<path d="M55.6283 69.4602C55.4248 69.6283 55.2212 69.7876 55.0089 69.938L55.0531 70.0177L68.5044 92.3451C69.1239 91.9381 69.7434 91.5221 70.3451 91.0796C71.646 90.1239 72.9115 89.0796 74.1239 87.9557L55.6283 69.4602Z" fill="#4D5A31"></path>
<path d="M66.9823 93.2832L53.5398 70.9203C53.2832 71.0708 53.0265 71.2124 52.7699 71.354C52.5044 71.4956 52.2478 71.6283 51.9734 71.7522C49.5575 72.8938 46.9469 73.4779 44.3363 73.4779C42.6195 73.4779 40.9115 73.2301 39.2566 72.7345C38.9734 72.646 38.6991 72.5398 38.4248 72.4425C38.1504 72.3451 37.8672 72.2566 37.5929 72.1504L27.6637 96.2743C27.6372 96.2655 27.6903 96.2832 27.6637 96.2743C27.8849 96.3628 28.2743 96.5044 28.4867 96.5841C28.7611 96.6903 29.0354 96.7965 29.3097 96.9026C29.4513 96.9557 29.5929 97.0177 29.7345 97.0619C32.6372 98.0885 35.6372 98.8053 38.6903 99.2035C38.8053 99.2212 38.9292 99.2389 39.0442 99.2478C39.1681 99.2655 39.292 99.2743 39.4159 99.292C39.6549 99.3186 39.8849 99.3451 40.1239 99.3717C40.1858 99.3717 40.2389 99.3805 40.3009 99.3894C40.5929 99.4159 40.8761 99.4425 41.1681 99.4602C41.2655 99.4602 41.3628 99.469 41.4602 99.4779C41.7168 99.4956 41.9646 99.5133 42.2212 99.5221C42.3805 99.5221 42.531 99.531 42.6903 99.5398C42.8938 99.5398 43.0885 99.5575 43.292 99.5575C43.5841 99.5575 43.8761 99.5664 44.1681 99.5664C44.2389 99.5664 44.3097 99.5664 44.3717 99.5664C46.8141 99.5664 49.2478 99.3628 51.6549 98.9558C51.6549 98.9558 51.7345 98.9469 51.7788 98.938C52.0354 98.8938 52.292 98.8496 52.5398 98.7965C52.6814 98.7699 52.8319 98.7434 52.9734 98.7168C53.1239 98.6903 53.2743 98.6549 53.4248 98.6195C53.6726 98.5664 53.9203 98.5133 54.1681 98.4602C54.2124 98.4513 54.2566 98.4425 54.3009 98.4336C57.9646 97.5752 61.5044 96.2566 64.8318 94.5044C65.0531 94.3894 65.2655 94.2566 65.4779 94.1416C65.7345 94 65.9911 93.8584 66.2478 93.708C66.0708 93.8142 66.4248 93.6018 66.2478 93.708C66.3097 93.6726 66.9203 93.3186 66.9823 93.2832Z" fill="#93D500"></path>
<path d="M33.1062 41.9203C33.3097 41.7522 33.5133 41.5929 33.7257 41.4425L33.6814 41.3628L20.2301 19.0354C19.6018 19.4425 18.9911 19.8673 18.3805 20.3097C17.0796 21.2655 15.823 22.3097 14.6106 23.4248L33.1062 41.9203Z" fill="#93D500"></path>
<path d="M13.3274 24.6549C13.115 24.8673 12.9204 25.0796 12.7168 25.292C12.5133 25.5044 12.3009 25.7168 12.1062 25.9292C10.7434 27.4071 9.50443 28.9469 8.38053 30.5487C8.32743 30.6283 8.27434 30.6991 8.22124 30.7788C8.09735 30.9646 7.97345 31.1504 7.84956 31.3274C7.71681 31.5221 7.59292 31.7168 7.46903 31.9115C7.42478 31.9823 7.37168 32.0531 7.32743 32.1239C3.08849 38.7699 0.814161 46.3097 0.513276 53.9203C0.504427 54.2124 0.495575 54.5133 0.486725 54.8053C0.486725 55.0973 0.469026 55.3982 0.469026 55.6903H26.5664C26.5664 55.3982 26.5929 55.0973 26.6106 54.8053C26.6283 54.5133 26.6283 54.2124 26.6549 53.9203C26.9912 50.5221 28.3009 47.2035 30.5929 44.4159C30.7788 44.1858 30.9911 43.9734 31.1858 43.7611C31.3805 43.5398 31.5664 43.3186 31.7788 43.1062L13.3274 24.6549Z" fill="#4D5A31"></path>
<path d="M67.1681 18.177C67.1681 18.177 67.0973 18.1327 67.062 18.115C66.8319 17.9735 66.6018 17.8407 66.3717 17.6991C66.2389 17.6195 66.1062 17.5487 65.9646 17.469C65.8319 17.3894 65.6903 17.3186 65.5575 17.2389C65.3186 17.1062 65.0885 16.9823 64.8496 16.8584C64.8142 16.8407 64.7788 16.823 64.7345 16.7965C63.2035 16 61.6372 15.292 60.0266 14.6814C59.9823 14.6637 59.9469 14.646 59.9027 14.6372C59.5575 14.5044 59.2035 14.3805 58.8496 14.2566C56 13.2655 53.0531 12.5664 50.0531 12.1681C49.9292 12.1504 49.8053 12.1327 49.6903 12.115C49.5664 12.0973 49.4425 12.0885 49.3274 12.0708C49.0885 12.0442 48.8584 12.0177 48.6195 11.9912C48.5575 11.9912 48.4867 11.9823 48.4248 11.9735C48.1416 11.9469 47.8584 11.9204 47.5841 11.9027C47.4779 11.9027 47.3628 11.8849 47.2566 11.8849C47.0177 11.8673 46.7699 11.8496 46.531 11.8407C46.3982 11.8407 46.2743 11.8319 46.1504 11.823V37.9823C47.4956 38.1239 48.823 38.4071 50.115 38.8407L69.3628 19.5929C68.646 19.0973 67.9292 18.6195 67.1858 18.1681L67.1681 18.177Z" fill="#4D5A31"></path>
<path d="M43.4867 11.8142C43.1947 11.8142 42.8938 11.8142 42.6018 11.8319C40.7522 11.9027 38.9115 12.0973 37.0885 12.3982C37.0443 12.3982 37.0088 12.4071 36.9646 12.4159C36.708 12.4602 36.4513 12.5044 36.2035 12.5575C36.0619 12.5841 35.9115 12.6106 35.7699 12.6372C35.6195 12.6637 35.469 12.6991 35.3186 12.7345C35.0708 12.7876 34.823 12.8407 34.5752 12.8938C34.531 12.9027 34.4867 12.9115 34.4425 12.9204C30.7788 13.7788 27.2389 15.0973 23.9115 16.8496C23.6903 16.9646 23.4867 17.0973 23.2655 17.2124C23.0088 17.354 22.7522 17.5044 22.4956 17.646C22.3009 17.7522 22.115 17.8584 21.9204 17.9734C21.9115 17.9734 21.8938 17.9911 21.8761 18C21.823 18.0265 21.7788 18.0531 21.7257 18.0885L22.1858 18.8496L35.2035 40.4513C35.4602 40.3009 35.7168 40.1593 35.9735 40.0177C36.2389 39.8761 36.4956 39.7434 36.7699 39.6195C38.6283 38.7345 40.6018 38.1858 42.6106 37.9823C42.9027 37.9558 43.2035 37.9292 43.4956 37.9115C43.7876 37.8938 44.0885 37.885 44.3805 37.885V11.7876C44.0885 11.7876 43.7876 11.7965 43.4956 11.8053L43.4867 11.8142Z" fill="#6BA43A"></path>
<path d="M88.2124 53.531C88.2035 53.3009 88.1858 53.0619 88.1681 52.8319C88.1681 52.7168 88.1504 52.6018 88.1416 52.4779C88.1239 52.2035 88.0973 51.9292 88.0708 51.6549C88.0708 51.5841 88.0619 51.5133 88.0531 51.4425C88.0265 51.1327 87.9911 50.823 87.9558 50.5221C87.9558 50.4956 87.9557 50.469 87.9469 50.4513C87.9469 50.4425 87.9469 50.4248 87.9469 50.4159C87.9027 50.0796 87.8584 49.7522 87.8141 49.4248C87.8141 49.4159 87.8141 49.4071 87.8141 49.3982C87.5133 47.3186 87.0619 45.2566 86.469 43.2301C86.469 43.2124 86.469 43.2035 86.4602 43.1947C86.3628 42.8761 86.2655 42.5664 86.1681 42.2566C86.1504 42.2124 86.1416 42.177 86.1327 42.1327C86.0442 41.8496 85.9469 41.5664 85.8495 41.292C85.823 41.2124 85.7965 41.1416 85.7699 41.0619C85.6814 40.823 85.5929 40.5752 85.5044 40.3363C85.4602 40.2212 85.4159 40.1062 85.3717 39.9911C85.292 39.7876 85.2124 39.5929 85.1327 39.3894C85.0708 39.2301 85.0088 39.0708 84.938 38.9203C84.8761 38.7611 84.8053 38.6106 84.7434 38.4513C84.6549 38.2566 84.5664 38.0531 84.4867 37.8584C84.4336 37.7434 84.3894 37.6372 84.3363 37.5221C84.2301 37.2832 84.115 37.0531 84.0088 36.8142C83.9734 36.7434 83.938 36.6726 83.9026 36.6018C83.7699 36.3363 83.6372 36.0619 83.5044 35.7965C83.4867 35.7611 83.469 35.7257 83.4425 35.6814C83.292 35.3894 83.1416 35.0973 82.9823 34.8053C82.9823 34.7965 82.9735 34.7876 82.9646 34.7699C82.2035 33.3717 81.3717 32.0177 80.469 30.7168L61.2124 49.9734C61.6549 51.2655 61.9381 52.5929 62.0708 53.938H88.2301C88.2301 53.8053 88.2301 53.6814 88.2124 53.5487V53.531Z" fill="#4D5A31"></path>
<path d="M62.1681 55.6903C62.1681 55.9823 62.1416 56.2832 62.1239 56.5752C62.1062 56.8672 62.1062 57.1681 62.0796 57.4602C61.7434 60.8584 60.4336 64.177 58.1416 66.9646C57.9557 67.1947 57.7434 67.4071 57.5487 67.6195C57.354 67.8407 57.1681 68.0619 56.9558 68.2743L75.4071 86.7257C75.6195 86.5133 75.8142 86.3009 76.0177 86.0885C76.2212 85.8761 76.4336 85.6637 76.6283 85.4513C77.9911 83.9734 79.2389 82.4248 80.3628 80.8142C80.4071 80.7522 80.4513 80.6903 80.4956 80.6283C80.6372 80.4336 80.7699 80.2301 80.9026 80.0354C81.0177 79.8584 81.1416 79.6814 81.2566 79.4956C81.3097 79.4071 81.3717 79.3186 81.4248 79.2301C85.6549 72.5841 87.9204 65.0531 88.2212 57.4513C88.2301 57.1593 88.2389 56.8584 88.2478 56.5664C88.2478 56.2743 88.2655 55.9734 88.2655 55.6814H62.1681V55.6903Z" fill="#6BA43A"></path>
<path d="M96.0177 4.04424C91.2478 -0.725667 83.5044 -0.725667 78.7257 4.04424C74.9204 7.84955 74.1593 13.5487 76.4248 18.115L49.7965 44.7434C45.2212 42.4779 39.531 43.2389 35.7257 47.0442C30.9469 51.8142 30.9557 59.5575 35.7257 64.3363C40.5044 69.115 48.2389 69.1062 53.0177 64.3363C56.823 60.531 57.5841 54.8319 55.3186 50.2655L81.9469 23.6372C86.5221 25.9027 92.2124 25.1416 96.0177 21.3363C100.788 16.5664 100.788 8.82301 96.0177 4.04424Z" fill="#424143"></path>
<path d="M141.64 49.64H129V56.36H141.64V69H148.36V56.36H161V49.64H148.36V37H141.64V49.64Z" fill="black"></path>
</svg>
